<?xml version="1.0" standalone="no"?>
<!DOCTYPE svg PUBLIC "-//W3C//DTD SVG 20010904//EN"
 "http://www.w3.org/TR/2001/REC-SVG-20010904/DTD/svg10.dtd">
<svg version="1.0" xmlns="http://www.w3.org/2000/svg"
 width="2363.000000pt" height="2363.000000pt" viewBox="0 0 2363.000000 2363.000000"
 preserveAspectRatio="xMidYMid meet">
<metadata>
Created by potrace 1.16, written by Peter Selinger 2001-2019
</metadata>
<g transform="translate(0.000000,2363.000000) scale(0.100000,-0.100000)"
fill="#ed1c35" stroke="none">
<path d="M11535 23374 c-208 -28 -439 -100 -631 -198 -175 -88 -8455 -4874
-8554 -4944 -128 -90 -367 -328 -457 -457 -216 -305 -341 -644 -372 -1010 -16
-182 -15 -8245 1 -8245 18 0 369 217 624 385 461 306 768 560 861 713 13 20
59 147 104 282 289 877 642 1490 1106 1921 117 110 228 194 393 299 284 181
446 306 643 499 254 248 404 448 655 871 154 261 223 360 312 450 192 194 463
306 659 271 181 -32 303 -150 346 -334 8 -34 15 -84 15 -112 0 -105 -81 -595
-155 -937 -20 -89 -33 -163 -30 -166 5 -6 70 48 250 209 221 198 400 372 1376
1341 519 515 967 955 994 978 108 90 302 160 440 160 126 0 287 -52 401 -131
28 -19 63 -58 91 -100 l44 -69 42 36 c98 84 297 154 437 154 147 0 333 -68
449 -163 185 -154 287 -411 252 -636 -15 -94 -45 -184 -81 -243 l-29 -47 64
-45 c118 -85 205 -202 258 -349 38 -106 48 -258 23 -357 -29 -116 -103 -252
-184 -342 l-34 -38 49 -54 c98 -110 153 -231 175 -380 16 -112 1 -215 -51
-368 -55 -158 -109 -270 -253 -523 -69 -121 -205 -366 -303 -545 -419 -765
-678 -1183 -1035 -1673 -510 -701 -1316 -1596 -1745 -1939 -680 -543 -1452
-776 -2895 -873 -346 -23 -491 -50 -707 -131 -176 -66 -281 -127 -768 -449
-264 -175 -703 -464 -975 -643 -272 -178 -499 -328 -503 -332 -5 -4 85 -61
200 -127 114 -66 1909 -1103 3988 -2304 2079 -1200 3832 -2209 3895 -2240 63
-32 176 -78 250 -103 172 -57 390 -102 390 -81 0 2 -31 98 -69 212 -212 639
-286 1238 -230 1873 58 664 335 1169 819 1495 103 69 332 183 455 225 233 81
493 130 796 151 206 14 306 6 839 -60 707 -89 1209 -118 1740 -101 623 20 897
62 1114 169 283 139 387 334 373 696 -7 182 -31 313 -117 652 -82 320 -108
475 -117 693 -12 333 48 624 191 915 81 165 168 295 346 521 152 192 187 249
196 318 9 63 -10 108 -73 176 -74 80 -145 126 -423 270 -129 68 -236 124 -238
125 -1 1 102 42 230 90 359 136 442 179 532 275 59 63 76 103 76 180 0 120
-49 229 -223 500 -167 259 -203 362 -195 563 8 205 86 367 258 538 142 142
325 257 585 370 144 62 230 114 305 186 224 211 195 478 -97 893 -60 85 -221
315 -359 510 -645 916 -1142 1649 -1333 1969 -136 228 -216 414 -247 578 -24
130 -15 276 40 593 88 515 99 673 76 1100 -82 1474 -567 2874 -1448 4175 -207
307 -483 661 -703 904 l-104 115 -880 509 c-484 280 -929 533 -990 562 -192
93 -413 157 -635 185 -115 14 -393 11 -515 -6z"/>
<path d="M15590 21515 c0 -2 46 -71 103 -153 986 -1422 1538 -3137 1537 -4777
0 -248 -20 -420 -98 -850 -46 -256 -50 -411 -14 -520 31 -94 77 -187 159 -325
206 -345 772 -1178 1517 -2230 237 -335 298 -429 356 -545 78 -158 115 -275
132 -417 34 -290 -89 -571 -337 -768 -98 -77 -210 -141 -378 -214 -225 -98
-350 -178 -454 -289 -78 -84 -114 -157 -121 -246 -7 -98 14 -156 106 -297 240
-367 312 -540 312 -754 0 -184 -62 -331 -194 -464 -44 -45 -97 -94 -116 -108
l-34 -25 68 -74 c75 -82 146 -215 165 -307 26 -129 2 -275 -69 -410 -42 -82
-52 -95 -230 -322 -306 -390 -412 -642 -427 -1010 -10 -232 14 -399 102 -736
145 -549 169 -857 94 -1159 -23 -88 -89 -237 -140 -312 -18 -26 -64 -81 -103
-121 -265 -275 -611 -388 -1321 -431 -681 -42 -1225 -17 -2145 99 -443 56
-528 62 -714 50 -462 -30 -832 -146 -1098 -345 -104 -78 -249 -228 -313 -325
-146 -220 -236 -498 -265 -820 -17 -185 -15 -588 4 -759 32 -293 103 -628 191
-901 42 -128 142 -391 154 -403 11 -11 185 18 321 54 135 36 253 80 369 138
114 58 8395 4838 8501 4908 485 319 809 838 885 1416 13 105 15 672 15 5050 0
3377 -3 4959 -10 5017 -75 600 -405 1134 -900 1452 -87 56 -5595 3238 -5605
3238 -3 0 -5 -2 -5 -5z"/>
<path d="M10028 14917 c-26 -8 -64 -27 -85 -42 -45 -35 -376 -360 -1273 -1250
-829 -823 -1099 -1078 -1390 -1312 -241 -194 -503 -345 -598 -345 -61 0 -126
32 -152 75 -47 75 -47 70 55 512 181 792 243 1103 231 1170 -14 74 -87 116
-173 100 -56 -10 -108 -71 -183 -216 -112 -215 -396 -624 -622 -897 -251 -303
-551 -602 -785 -780 -45 -34 -146 -104 -225 -155 -231 -152 -361 -262 -511
-435 -194 -225 -344 -456 -497 -767 -125 -255 -196 -431 -319 -799 -55 -163
-111 -315 -125 -338 -178 -303 -783 -769 -1681 -1294 l-185 -109 0 -530 c0
-291 5 -582 10 -645 43 -483 244 -914 584 -1256 99 -99 303 -264 326 -264 15
0 1030 664 1920 1256 305 203 512 307 758 378 203 59 333 79 652 101 1376 91
2054 291 2680 789 282 224 908 894 1331 1423 513 641 817 1111 1369 2117 111
203 239 433 283 510 217 379 288 595 243 748 -27 93 -88 136 -197 137 -70 1
-130 -19 -188 -64 -51 -41 -90 -45 -139 -15 -57 35 -86 107 -64 162 4 9 120
134 259 276 159 164 258 274 269 298 10 24 16 66 17 109 0 89 -27 149 -94 209
-58 52 -114 70 -206 64 -70 -3 -99 -16 -192 -83 -24 -18 -47 -25 -79 -25 -38
0 -50 5 -83 39 -33 33 -39 45 -39 80 0 23 5 52 11 64 7 12 100 112 208 222
227 230 246 258 245 370 -1 83 -17 126 -71 185 -54 61 -121 90 -208 90 -114
-1 -131 -12 -396 -276 -259 -258 -268 -264 -343 -229 -70 33 -100 132 -56 188
63 80 82 210 42 299 -54 123 -202 192 -334 155z"/>
</g>
</svg>
